<?xml version="1.0" encoding="UTF-8"?>
<svg width="231px" height="169px" viewBox="0 0 231 169" version="1.1" xmlns="http://www.w3.org/2000/svg" xmlns:xlink="http://www.w3.org/1999/xlink">
    <!-- Generator: Sketch 54.1 (76490) - https://sketchapp.com -->
    <title>Form</title>
    <desc>Created with Sketch.</desc>
    <defs>
        <linearGradient x1="100%" y1="23.9005517%" x2="0%" y2="76.0994483%" id="linearGradient-1">
            <stop stop-color="#FFC279" offset="0%"></stop>
            <stop stop-color="#F89763" offset="100%"></stop>
        </linearGradient>
        <rect id="path-2" x="0" y="5.68434189e-14" width="45" height="48"></rect>
    </defs>
    <g id="Page-1" stroke="none" stroke-width="1" fill="none" fill-rule="evenodd">
        <g id="Desktop-HD" transform="translate(-1013.000000, -423.000000)">
            <g id="Form" transform="translate(1013.000000, 423.000000)">
                <rect id="Rectangle" stroke="#DE8556" stroke-width="2" x="1" y="19" width="207" height="149"></rect>
                <rect id="Rectangle" fill="url(#linearGradient-1)" x="22" y="1.13686838e-13" width="209" height="151"></rect>
                <g id="Group-3" transform="translate(186.000000, 0.000000)">
                    <mask id="mask-3" fill="white">
                        <use xlink:href="#path-2"></use>
                    </mask>
                    <g id="Rectangle"></g>
                    <circle id="Oval" stroke="#FFFFFF" stroke-width="15" opacity="0.3" mask="url(#mask-3)" cx="43.5" cy="2.5" r="34.5"></circle>
                </g>
                <rect id="Rectangle" fill="#FFFFFF" x="44" y="20" width="36" height="2"></rect>
                <rect id="Rectangle" fill="#FFFFFF" x="44" y="32" width="24" height="2"></rect>
                <rect id="Rectangle" fill="#FFFFFF" opacity="0.3" x="44" y="48" width="95" height="5"></rect>
                <rect id="Rectangle" fill="#FFFFFF" x="44" y="48" width="41" height="5"></rect>
                <rect id="Rectangle" fill="#FFFFFF" opacity="0.3" x="44" y="71" width="138" height="5"></rect>
                <rect id="Rectangle" fill="#FFFFFF" x="44" y="71" width="60" height="5"></rect>
                <rect id="Rectangle" fill="#FFFFFF" opacity="0.3" x="44" y="94" width="65" height="5"></rect>
                <rect id="Rectangle" fill="#FFFFFF" x="44" y="94" width="28" height="5"></rect>
                <rect id="Rectangle" fill="#FFFFFF" opacity="0.3" x="44" y="117" width="65" height="5"></rect>
                <rect id="Rectangle" fill="#FFFFFF" x="44" y="117" width="28" height="5"></rect>
            </g>
        </g>
    </g>
</svg>