<?xml version="1.0" encoding="UTF-8"?>
<svg width="182px" height="201px" viewBox="0 0 182 201" version="1.1" xmlns="http://www.w3.org/2000/svg" xmlns:xlink="http://www.w3.org/1999/xlink">
    <!-- Generator: Sketch 54.1 (76490) - https://sketchapp.com -->
    <title>Plant</title>
    <desc>Created with Sketch.</desc>
    <g id="Page-1" stroke="none" stroke-width="1" fill="none" fill-rule="evenodd">
        <g id="Desktop-HD" transform="translate(-1062.000000, -764.000000)">
            <g id="Plant" transform="translate(1062.000000, 764.115296)">
                <ellipse id="Oval" fill="#D6DFE6" cx="91" cy="196.884704" rx="91" ry="4"></ellipse>
                <path d="M38.5345743,53.4713711 C27.5952269,61.8372607 32.0772608,85.8042005 42.6292986,101.84205 C53.1813364,117.879899 64.1906148,122.698371 76.2779052,117.957361 C88.3651957,113.216352 100.373948,93.624629 81.5248759,73.548 C62.6758035,53.4713711 49.4739218,45.1054814 38.5345743,53.4713711 Z" id="Path-6" fill="#C3DCF0"></path>
                <path d="M133.01931,1.96095429 C119.201613,-7.69341119 90.347396,20.380483 85.936136,40.7989383 C81.5248759,61.2173937 88.3025996,71.1468191 100.759731,75.489683 C113.216862,79.8325469 130.166243,76.4689911 136.68943,51.9246372 C143.212618,27.3802833 146.837007,11.6153198 133.01931,1.96095429 Z" id="Path-7" fill="#C3DCF0"></path>
                <path d="M145.139223,84.9736189 C137.192126,77.0998096 118.352894,88.227802 109.611443,99.1294218 C100.869992,110.031042 98.881051,122.992054 111.344794,130.077218 C123.808538,137.162381 136.576798,132.17108 140.858011,119.696307 C145.139223,107.221534 153.08632,92.8474282 145.139223,84.9736189 Z" id="Path-8" fill="#C3DCF0"></path>
                <path d="M103.918259,152.884704 C108.980729,130.759106 118.68108,111.786385 133.01931,95.9665402" id="Path-3" stroke="#9AAEC4" stroke-width="2" stroke-linecap="round"></path>
                <path d="M91.5143112,152.884704 C91.5801315,99.4864389 102.344874,54.916003 123.808538,19.1733962" id="Path-4" stroke="#9AAEC4" stroke-width="2" stroke-linecap="round"></path>
                <path d="M81.5248759,152.884704 C80.6828359,122.453945 71.2349894,96.0083768 53.1813364,73.548" id="Path-5" stroke="#9AAEC4" stroke-width="2" stroke-linecap="round"></path>
                <g id="Group-2" transform="translate(60.000000, 152.884704)">
                    <path d="M66,27 C66,36.3888407 58.3888407,44 49,44 L17,44 C7.61115925,44 1.14980138e-15,36.3888407 0,27 L0,0 L66,0 L66,27 Z" id="Combined-Shape" fill="#C3DCF0"></path>
                    <path d="M0,9 L66,9" id="Path-2" stroke="#9AAEC4" stroke-width="2"></path>
                    <path d="M0,17.5 L66,17.5" id="Path-2" stroke="#9AAEC4" stroke-width="2"></path>
                </g>
            </g>
        </g>
    </g>
</svg>